<svg xmlns="http://www.w3.org/2000/svg" width="2000" height="2000" version="1.1"><path fill="#84321F" d="M0 0 C71.7202473 0 71.7202473 0 96 23 C111.4853979 39.96725416 115.90181968 60.94093851 115.3515625 83.32421875 C114.43369179 102.98580174 106.73074462 121.39425413 92.3671875 135.03125 C65.1310237 157.683109 35.88668164 154 0 154 C0 103.18 0 52.36 0 0 Z M22 21 C22 57.96 22 94.92 22 133 C53.33396384 133.10348045 53.33396384 133.10348045 78.74609375 117.4140625 C89.97804425 105.38400113 94.62172447 90.50133119 94.2421875 74.16015625 C93.08611388 59.07526018 87.57011115 44.18981719 76 34 C59.10475735 21.26514743 43.12369245 21 22 21 Z" transform="translate(696,923)"/><path fill="#84321F" d="M0 0 C-1.67642324 4.25314786 -4.7175909 7.12101814 -7.875 10.3125 C-8.40480469 10.87517578 -8.93460938 11.43785156 -9.48046875 12.01757812 C-11.0546875 13.61328125 -11.0546875 13.61328125 -14 16 C-17.50783404 15.53445543 -20.15123336 13.88629753 -23.1875 12.125 C-36.60723664 4.65366465 -50.82258261 2.99090934 -65.75 6.5625 C-72.69954892 8.62995453 -78.25809071 11.60806938 -84 16 C-84.80179688 16.6084375 -85.60359375 17.216875 -86.4296875 17.84375 C-98.84531844 28.04379697 -104.64037142 42.54683299 -106.22265625 58.203125 C-106.83185169 72.50597438 -101.31026574 87.0418891 -92.1875 97.9375 C-81.97790825 108.49982237 -68.69832829 114.9949861 -54 116 C-40.89213992 116.11167506 -30.05410417 113.50976347 -19.15625 106.171875 C-17 105 -17 105 -13 105 C-11.35253906 106.19335938 -11.35253906 106.19335938 -9.765625 107.84375 C-9.19199219 108.43027344 -8.61835937 109.01679687 -8.02734375 109.62109375 C-7.44082031 110.24113281 -6.85429688 110.86117188 -6.25 111.5 C-5.64800781 112.12003906 -5.04601563 112.74007813 -4.42578125 113.37890625 C-2.94136366 114.91044821 -1.46945655 116.45409774 0 118 C-4.45167639 127.55656112 -16.68655453 131.60393701 -26 135 C-45.27728995 141.80977308 -68.05688888 139.2988922 -86.3125 130.8125 C-92.91159004 127.30250564 -98.48956891 123.02500975 -104 118 C-104.98419922 117.12021484 -104.98419922 117.12021484 -105.98828125 116.22265625 C-120.82241403 102.2437063 -128.09255734 82.74919333 -128.97631836 62.70166016 C-129.51626359 40.29273317 -121.50886823 20.73057019 -106.40380859 4.44677734 C-77.60352223 -25.23504822 -31.83308158 -24.05166164 0 0 Z" transform="translate(1252,940)"/><path fill="#84321F" d="M0 0 C0.66 0 1.32 0 2 0 C2.97317068 2.28483551 3.94634099 4.56967118 4.91950989 6.85450745 C5.80621275 8.93632751 6.69292156 11.01814504 7.57963562 13.09996033 C9.8552002 18.44252367 12.13071503 23.78510818 14.40601158 29.12778568 C15.74590171 32.27400663 17.0858316 35.42021065 18.42578125 38.56640625 C18.69789303 39.20532492 18.97000481 39.84424358 19.2503624 40.50252342 C23.15837285 49.67832746 27.06867389 58.85315228 30.98046875 68.02734375 C36.19346207 80.25398006 41.40090421 92.48296948 46.6026001 104.7144165 C47.54309961 106.92573029 48.48381817 109.13695093 49.42474365 111.3480835 C52.17537264 117.81213801 54.92235109 124.2777181 57.66345215 130.74581909 C58.50686199 132.73456366 59.35148994 134.72279211 60.1973877 136.71047974 C61.35243205 139.42535505 62.50299569 142.14208427 63.65234375 144.859375 C64.1660981 146.06293892 64.1660981 146.06293892 64.69023132 147.29081726 C67 152.77152351 67 152.77152351 67 155 C59.41 155 51.82 155 44 155 C35.13763515 135.12298168 26.70732324 115.08282308 18.33795166 94.99441528 C15.8917531 89.12642499 13.42901408 83.26567566 10.953125 77.41015625 C10.3383364 75.95395675 9.72358895 74.49773987 9.10888672 73.04150391 C8.25002063 71.00703315 7.39010526 68.9730462 6.52642822 66.94061279 C5.75148959 65.11667398 4.98107647 63.29081435 4.2109375 61.46484375 C3.78087402 60.450271 3.35081055 59.43569824 2.90771484 58.39038086 C2 56 2 56 2 54 C1.34 54 0.68 54 0 54 C-0.17776978 54.55633118 -0.35553955 55.11266235 -0.53869629 55.68585205 C-2.24322427 60.9223733 -4.16147201 65.99283676 -6.34375 71.046875 C-6.66552216 71.80043777 -6.98729431 72.55400055 -7.31881714 73.33039856 C-8.0136365 74.9566122 -8.71004348 76.58214827 -9.40789795 78.20706177 C-10.90758796 81.69906058 -12.39958747 85.1943277 -13.89193726 88.68946838 C-14.68455542 90.54577712 -15.47755107 92.40192471 -16.27090454 94.25791931 C-21.00768094 105.34447865 -25.69084846 116.45363045 -30.375 127.5625 C-31.59053547 130.44461047 -32.80616831 133.32667976 -34.02200317 136.20866394 C-34.74739376 137.92822149 -35.47256941 139.64786973 -36.19747925 141.36763 C-36.52338043 142.14035751 -36.84928162 142.91308502 -37.18505859 143.70922852 C-37.46465424 144.37245621 -37.74424988 145.0356839 -38.03231812 145.7190094 C-39.34631381 148.81632049 -40.67465498 151.90752829 -42 155 C-49.59 155 -57.18 155 -65 155 C-64.29806386 151.49031928 -63.72715548 149.02692449 -62.38037109 145.85693359 C-61.88157944 144.67337029 -61.88157944 144.67337029 -61.37271118 143.46589661 C-61.00995087 142.6186351 -60.64719055 141.7713736 -60.2734375 140.8984375 C-59.70476456 139.55497505 -59.70476456 139.55497505 -59.12460327 138.18437195 C-57.8793427 135.24593523 -56.6272672 132.31045677 -55.375 129.375 C-54.4999757 127.31452027 -53.6253049 125.25389038 -52.75097656 123.19311523 C-47.19856285 110.1169428 -41.61458718 97.05410473 -36.00537109 84.00219727 C-32.05387801 74.80572235 -28.12284057 65.60069272 -24.203125 56.390625 C-23.69311951 55.1923558 -23.18311401 53.99408661 -22.65765381 52.75950623 C-20.11400262 46.78231528 -17.57154672 40.8046183 -15.03027344 34.82641602 C-10.08118883 23.19037667 -5.10685897 11.56777633 0 0 Z" transform="translate(919,922)"/><path fill="#84321F" d="M0 0 C0.66 0 1.32 0 2 0 C2.61536621 1.44838257 2.61536621 1.44838257 3.24316406 2.92602539 C11.76100212 22.97376162 20.28308909 43.01968457 28.8125 63.0625 C29.2245166 64.03071686 29.6365332 64.99893372 30.06103516 65.99649048 C34.39664256 76.18489385 38.73286919 86.37303312 43.07060242 96.56053162 C44.86597925 100.77724016 46.66107683 104.99406756 48.45614624 109.21090698 C49.30172939 111.19707106 50.14744711 113.18317785 50.99331665 115.16921997 C53.29430405 120.57179831 55.59214388 125.97569496 57.88647461 131.38110352 C59.03863623 134.09086841 60.19598126 136.79838577 61.35351562 139.50585938 C62.09520821 141.24863148 62.83675099 142.99146735 63.578125 144.734375 C63.92413757 145.54022034 64.27015015 146.34606567 64.62664795 147.17633057 C67 152.77289659 67 152.77289659 67 155 C59.41 155 51.82 155 44 155 C39.32463452 145.08233496 35.02903681 135.04601017 30.82373047 124.92242432 C28.86066013 120.19728363 26.88938061 115.47557156 24.91796875 110.75390625 C24.51444183 109.78712952 24.11091492 108.82035278 23.69515991 107.82427979 C18.62317354 95.68562216 13.46635385 83.58307676 8.30737305 71.48120117 C7.96453781 70.67658951 7.62170258 69.87197784 7.26847839 69.04298401 C6.63250588 67.55074532 5.99600139 66.05873319 5.35884094 64.56700134 C3.86389434 61.0605307 2.39763489 57.54645561 1 54 C-7.19681746 72.34752745 -15.0303246 90.83820723 -22.79940796 109.36972046 C-26.49601496 118.18700456 -30.20733086 126.99807996 -33.9190979 135.80899048 C-35.6340731 139.880259 -37.34826052 143.95185915 -39.0625 148.0234375 C-40.031875 150.32570313 -41.00125 152.62796875 -42 155 C-49.59 155 -57.18 155 -65 155 C-63.87512459 148.25074754 -63.87512459 148.25074754 -62.50732422 145.13671875 C-62.20031082 144.4283638 -61.89329742 143.72000885 -61.57698059 142.9901886 C-61.23962387 142.23030136 -60.90226715 141.47041412 -60.5546875 140.6875 C-60.19731003 139.86714767 -59.83993256 139.04679535 -59.47172546 138.20158386 C-58.6910685 136.4112388 -57.90740941 134.62220049 -57.12112427 132.83432007 C-54.94812181 127.89180781 -52.79838546 122.93916004 -50.64453125 117.98828125 C-50.18705002 116.93844559 -49.72956879 115.88860992 -49.25822449 114.80696106 C-43.95662707 102.63017135 -38.75865872 90.40956051 -33.5625 78.1875 C-32.59796821 75.92070682 -31.63336856 73.65394251 -30.66870117 71.38720703 C-26.31036023 61.14425862 -21.95686179 50.89925457 -17.60493469 40.65357971 C-15.74191208 36.26796266 -13.87805266 31.88270148 -12.01412964 27.49746704 C-10.71418217 24.4378014 -9.41575547 21.37749356 -8.11743164 18.31713867 C-7.33225909 16.46921063 -6.54702507 14.6213087 -5.76171875 12.7734375 C-5.40763947 11.93757614 -5.05356018 11.10171478 -4.68875122 10.24052429 C-4.36180267 9.47198624 -4.03485413 8.70344818 -3.69799805 7.91162109 C-3.41651413 7.24842865 -3.13503021 6.58523621 -2.84501648 5.90194702 C-1.9563157 3.90167622 -0.99304765 1.95029331 0 0 Z" transform="translate(570,922)"/><path fill="#84321F" d="M0 0 C0.66 0 1.32 0 2 0 C2.49701416 1.17989502 2.99402832 2.35979004 3.50610352 3.57543945 C15.80964347 32.78552815 15.80964347 32.78552815 28.25 61.9375 C34.84105168 77.27952608 41.39393667 92.63765988 47.9375 108 C48.42859253 109.15249237 48.91968506 110.30498474 49.42565918 111.49240112 C52.19683141 117.99608379 54.96436749 124.50129268 57.72772217 131.00830078 C58.97142532 133.93280804 60.22000584 136.85519495 61.46923828 139.77734375 C62.21012649 141.51815872 62.95085908 143.25903993 63.69140625 145 C64.03050522 145.78963135 64.36960419 146.5792627 64.71897888 147.39282227 C67 152.77262546 67 152.77262546 67 155 C59.41 155 51.82 155 44 155 C38.90364663 144.18931026 34.27099787 133.22271781 29.6875 122.1875 C28.10076103 118.37554922 26.51190671 114.56448467 24.921875 110.75390625 C24.3168943 109.30374115 24.3168943 109.30374115 23.69969177 107.82427979 C20.85793213 101.02392776 17.97904724 94.24015036 15.078125 87.46484375 C14.68498611 86.54557602 14.29184723 85.62630829 13.88679504 84.67918396 C12.0036097 80.27727964 10.11526875 75.87769273 8.21948242 71.48120117 C7.54065931 69.8964045 6.86201955 68.31152929 6.18359375 66.7265625 C5.87403748 66.01390732 5.5644812 65.30125214 5.24554443 64.56700134 C3.75361381 61.0685393 2.56252276 57.7693131 2 54 C1.34 54 0.68 54 0 54 C-0.17776978 54.55633118 -0.35553955 55.11266235 -0.53869629 55.68585205 C-2.24322427 60.9223733 -4.16147201 65.99283676 -6.34375 71.046875 C-6.66552216 71.80043777 -6.98729431 72.55400055 -7.31881714 73.33039856 C-8.0136365 74.9566122 -8.71004348 76.58214827 -9.40789795 78.20706177 C-10.90758796 81.69906058 -12.39958747 85.1943277 -13.89193726 88.68946838 C-14.68455542 90.54577712 -15.47755107 92.40192471 -16.27090454 94.25791931 C-21.00768094 105.34447865 -25.69084846 116.45363045 -30.375 127.5625 C-31.59053547 130.44461047 -32.80616831 133.32667976 -34.02200317 136.20866394 C-34.74739376 137.92822149 -35.47256941 139.64786973 -36.19747925 141.36763 C-36.52338043 142.14035751 -36.84928162 142.91308502 -37.18505859 143.70922852 C-37.46465424 144.37245621 -37.74424988 145.0356839 -38.03231812 145.7190094 C-39.34631381 148.81632049 -40.67465498 151.90752829 -42 155 C-49.59 155 -57.18 155 -65 155 C-64.31856413 151.59282065 -63.80831435 149.21814134 -62.50732422 146.15844727 C-62.20030579 145.429991 -61.89328735 144.70153473 -61.57696533 143.95100403 C-61.23961365 143.16408676 -60.90226196 142.37716949 -60.5546875 141.56640625 C-60.01868927 140.30052925 -60.01868927 140.30052925 -59.47186279 139.00907898 C-58.27747407 136.19159027 -57.07627326 133.37705955 -55.875 130.5625 C-55.02223935 128.55517626 -54.16987174 126.54768551 -53.31787109 124.54003906 C-51.02434325 119.13908952 -48.72479512 113.74072223 -46.42407227 108.34283447 C-44.53859141 103.91690009 -42.65685847 99.48937705 -40.77520752 95.06181335 C-30.59513124 71.10887984 -20.37319101 47.1738647 -10.125 23.25 C-9.66603333 22.17818481 -9.20706665 21.10636963 -8.73419189 20.0020752 C-7.45110448 17.00628872 -6.16713735 14.01088115 -4.8828125 11.015625 C-4.50169312 10.12568848 -4.12057373 9.23575195 -3.72790527 8.31884766 C-3.20734558 7.10575928 -3.20734558 7.10575928 -2.67626953 5.86816406 C-2.2240654 4.81341888 -2.2240654 4.81341888 -1.76272583 3.73736572 C-1.2090365 2.47615123 -0.61599251 1.23198503 0 0 Z" transform="translate(285,922)"/><path fill="#84321F" d="M0 0 C29.04 0 58.08 0 88 0 C88 6.93 88 13.86 88 21 C66.22 21 44.44 21 22 21 C22 35.85 22 50.7 22 66 C38.5 66 55 66 72 66 C72 73.26 72 80.52 72 88 C55.5 88 39 88 22 88 C22 109.78 22 131.56 22 154 C14.74 154 7.48 154 0 154 C0 103.18 0 52.36 0 0 Z" transform="translate(1692,923)"/><path fill="#84321F" d="M0 0 C29.04 0 58.08 0 88 0 C88 6.93 88 13.86 88 21 C66.22 21 44.44 21 22 21 C22 35.85 22 50.7 22 66 C38.5 66 55 66 72 66 C72 73.26 72 80.52 72 88 C55.5 88 39 88 22 88 C22 109.78 22 131.56 22 154 C14.74 154 7.48 154 0 154 C0 103.18 0 52.36 0 0 Z" transform="translate(1545,923)"/><path fill="#84321F" d="M0 0 C7.92 0 15.84 0 24 0 C26.660625 5.1046875 26.660625 5.1046875 29.375 10.3125 C33.65229999 18.51419511 37.94401857 26.70804485 42.25683594 34.89111328 C47.18914825 44.25134218 52.09411373 53.62590118 57 63 C65.01154891 48.59238035 72.65684926 34.02038129 80.12280273 19.32446289 C81.47184573 16.67012512 82.84278357 14.02933083 84.23510742 11.39746094 C85.2802918 9.38545571 86.28170495 7.34794943 87.1809082 5.26660156 C88.2688518 2.9822982 89.01456045 1.57055803 91 0 C95.15179943 -0.94539443 99.08332477 -0.75706267 103.3125 -0.5 C104.99569336 -0.44585938 104.99569336 -0.44585938 106.71289062 -0.390625 C109.47874621 -0.29646821 112.23762241 -0.16512661 115 0 C113.31827437 6.14556526 110.18258143 11.45813366 107.125 17 C106.54492188 18.06089844 105.96484375 19.12179687 105.3671875 20.21484375 C104.1651051 22.41256396 102.96098859 24.60917274 101.75488281 26.8046875 C99.64784075 30.64121596 97.55177298 34.48365052 95.45703125 38.3269043 C94.48371262 40.11257214 93.50975158 41.89788997 92.53515625 43.68286133 C88.18454366 51.65157076 83.85894696 59.63373844 79.5390625 67.61914062 C78.78109375 69.0200293 78.78109375 69.0200293 78.0078125 70.44921875 C77.57098145 71.25705811 77.13415039 72.06489746 76.68408203 72.8972168 C75 76 75 76 73.50479126 78.24229431 C68.48527127 86.2536519 68.13207035 93.55848508 68.1953125 102.73046875 C68.18403783 104.2169254 68.17014657 105.70336427 68.15377808 107.18977356 C68.118015 111.06472618 68.11733106 114.93888548 68.12445068 118.81396484 C68.12536926 122.7830184 68.09242518 126.7517835 68.0625 130.72070312 C68.00889648 138.48064391 67.99556145 146.23983556 68 154 C61.07 154 54.14 154 47 154 C47.01160156 152.11474609 47.02320313 150.22949219 47.03515625 148.28710938 C47.06437411 141.99248726 47.05607182 135.6987451 47.02334595 129.40415192 C47.00486818 125.59503578 47.00051547 121.78709291 47.03076172 117.97802734 C47.63563575 95.2761753 47.63563575 95.2761753 39.14282227 74.74157715 C37.0601595 71.56775215 35.42587364 68.151422 33.703125 64.7734375 C32.97338648 63.3874951 32.2407856 62.00305614 31.50537109 60.62011719 C31.13692078 59.92640015 30.76847046 59.23268311 30.38885498 58.51794434 C30.01303284 57.81077271 29.63721069 57.10360107 29.25 56.375 C28.86048157 55.64075806 28.47096313 54.90651611 28.06964111 54.15002441 C17.04849241 33.25763932 17.04849241 33.25763932 5.4921875 12.66015625 C5.1101416 12.00241211 4.7280957 11.34466797 4.33447266 10.66699219 C3.34048187 8.96722767 2.33487424 7.27427032 1.328125 5.58203125 C0 3 0 3 0 0 Z" transform="translate(371,923)"/><path fill="#84321F" d="M0 0 C7.26 0 14.52 0 22 0 C22 43.89 22 87.78 22 133 C43.78 133 65.56 133 88 133 C88 139.93 88 146.86 88 154 C58.96 154 29.92 154 0 154 C0 103.18 0 52.36 0 0 Z" transform="translate(1311,923)"/><path fill="#84321F" d="M0 0 C7.26 0 14.52 0 22 0 C22 50.82 22 101.64 22 154 C14.74 154 7.48 154 0 154 C0 103.18 0 52.36 0 0 Z" transform="translate(1458,923)"/></svg>